<mxfile host="app.diagrams.net" modified="2021-08-20T06:36:17.436Z" agent="5.0 (Macintosh; Intel Mac OS X 10_15_7) AppleWebKit/537.36 (KHTML, like Gecko) Chrome/92.0.4515.159 Safari/537.36" etag="IgPbF_55CGgm32QJ_x0z" version="14.9.8" type="github">
  <diagram id="voeTZfjvJ5FzmbPML85O" name="第 1 页">
    <mxGraphModel dx="1426" dy="794" grid="1" gridSize="10" guides="1" tooltips="1" connect="1" arrows="1" fold="1" page="1" pageScale="1" pageWidth="827" pageHeight="1169" math="0" shadow="0">
      <root>
        <mxCell id="0" />
        <mxCell id="1" parent="0" />
        <mxCell id="VQ8d4OnUmdFfFtYIpNaV-8" value="" style="group" parent="1" vertex="1" connectable="0">
          <mxGeometry x="150" y="480" width="510" height="40" as="geometry" />
        </mxCell>
        <mxCell id="VQ8d4OnUmdFfFtYIpNaV-9" value="" style="rounded=0;whiteSpace=wrap;html=1;" parent="VQ8d4OnUmdFfFtYIpNaV-8" vertex="1">
          <mxGeometry width="510" height="40" as="geometry" />
        </mxCell>
        <mxCell id="VQ8d4OnUmdFfFtYIpNaV-10" value="" style="endArrow=none;html=1;entryX=0.25;entryY=0;entryDx=0;entryDy=0;exitX=0.25;exitY=1;exitDx=0;exitDy=0;" parent="VQ8d4OnUmdFfFtYIpNaV-8" source="VQ8d4OnUmdFfFtYIpNaV-9" target="VQ8d4OnUmdFfFtYIpNaV-9" edge="1">
          <mxGeometry width="50" height="50" relative="1" as="geometry">
            <mxPoint x="240" y="260" as="sourcePoint" />
            <mxPoint x="290" y="210" as="targetPoint" />
          </mxGeometry>
        </mxCell>
        <mxCell id="VQ8d4OnUmdFfFtYIpNaV-11" value="" style="endArrow=none;html=1;entryX=0.5;entryY=0;entryDx=0;entryDy=0;exitX=0.5;exitY=1;exitDx=0;exitDy=0;" parent="VQ8d4OnUmdFfFtYIpNaV-8" source="VQ8d4OnUmdFfFtYIpNaV-9" target="VQ8d4OnUmdFfFtYIpNaV-9" edge="1">
          <mxGeometry width="50" height="50" relative="1" as="geometry">
            <mxPoint x="200" y="170" as="sourcePoint" />
            <mxPoint x="250" y="120" as="targetPoint" />
          </mxGeometry>
        </mxCell>
        <mxCell id="VQ8d4OnUmdFfFtYIpNaV-12" value="" style="endArrow=none;html=1;entryX=0.75;entryY=0;entryDx=0;entryDy=0;exitX=0.75;exitY=1;exitDx=0;exitDy=0;" parent="VQ8d4OnUmdFfFtYIpNaV-8" source="VQ8d4OnUmdFfFtYIpNaV-9" target="VQ8d4OnUmdFfFtYIpNaV-9" edge="1">
          <mxGeometry width="50" height="50" relative="1" as="geometry">
            <mxPoint x="310" y="120" as="sourcePoint" />
            <mxPoint x="360" y="70" as="targetPoint" />
          </mxGeometry>
        </mxCell>
        <mxCell id="VQ8d4OnUmdFfFtYIpNaV-17" value="Checksum" style="text;html=1;strokeColor=none;fillColor=none;align=center;verticalAlign=middle;whiteSpace=wrap;rounded=0;" parent="VQ8d4OnUmdFfFtYIpNaV-8" vertex="1">
          <mxGeometry x="50" y="10" width="40" height="20" as="geometry" />
        </mxCell>
        <mxCell id="VQ8d4OnUmdFfFtYIpNaV-18" value="length" style="text;html=1;strokeColor=none;fillColor=none;align=center;verticalAlign=middle;whiteSpace=wrap;rounded=0;" parent="VQ8d4OnUmdFfFtYIpNaV-8" vertex="1">
          <mxGeometry x="170" y="10" width="40" height="20" as="geometry" />
        </mxCell>
        <mxCell id="VQ8d4OnUmdFfFtYIpNaV-19" value="Type" style="text;html=1;strokeColor=none;fillColor=none;align=center;verticalAlign=middle;whiteSpace=wrap;rounded=0;" parent="VQ8d4OnUmdFfFtYIpNaV-8" vertex="1">
          <mxGeometry x="300" y="10" width="40" height="20" as="geometry" />
        </mxCell>
        <mxCell id="VQ8d4OnUmdFfFtYIpNaV-20" value="log number" style="text;html=1;strokeColor=none;fillColor=none;align=center;verticalAlign=middle;whiteSpace=wrap;rounded=0;" parent="VQ8d4OnUmdFfFtYIpNaV-8" vertex="1">
          <mxGeometry x="410" y="10" width="70" height="20" as="geometry" />
        </mxCell>
        <mxCell id="VQ8d4OnUmdFfFtYIpNaV-1" value="" style="rounded=0;whiteSpace=wrap;html=1;" parent="1" vertex="1">
          <mxGeometry x="150" y="170" width="510" height="40" as="geometry" />
        </mxCell>
        <mxCell id="VQ8d4OnUmdFfFtYIpNaV-4" value="" style="endArrow=none;html=1;entryX=0.5;entryY=0;entryDx=0;entryDy=0;exitX=0.5;exitY=1;exitDx=0;exitDy=0;" parent="1" source="VQ8d4OnUmdFfFtYIpNaV-1" target="VQ8d4OnUmdFfFtYIpNaV-1" edge="1">
          <mxGeometry x="150" y="170" width="50" height="50" as="geometry">
            <mxPoint x="350" y="340" as="sourcePoint" />
            <mxPoint x="400" y="290" as="targetPoint" />
          </mxGeometry>
        </mxCell>
        <mxCell id="VQ8d4OnUmdFfFtYIpNaV-5" value="" style="endArrow=none;html=1;entryX=0.75;entryY=0;entryDx=0;entryDy=0;exitX=0.75;exitY=1;exitDx=0;exitDy=0;" parent="1" source="VQ8d4OnUmdFfFtYIpNaV-1" target="VQ8d4OnUmdFfFtYIpNaV-1" edge="1">
          <mxGeometry x="150" y="170" width="50" height="50" as="geometry">
            <mxPoint x="460" y="290" as="sourcePoint" />
            <mxPoint x="510" y="240" as="targetPoint" />
          </mxGeometry>
        </mxCell>
        <mxCell id="VQ8d4OnUmdFfFtYIpNaV-13" value="WAL文件头格式" style="text;html=1;strokeColor=none;fillColor=none;align=center;verticalAlign=middle;whiteSpace=wrap;rounded=0;" parent="1" vertex="1">
          <mxGeometry x="150" y="90" width="100" height="20" as="geometry" />
        </mxCell>
        <mxCell id="VQ8d4OnUmdFfFtYIpNaV-14" value="Checksum" style="text;html=1;strokeColor=none;fillColor=none;align=center;verticalAlign=middle;whiteSpace=wrap;rounded=0;" parent="1" vertex="1">
          <mxGeometry x="240" y="180" width="40" height="20" as="geometry" />
        </mxCell>
        <mxCell id="VQ8d4OnUmdFfFtYIpNaV-15" value="length" style="text;html=1;strokeColor=none;fillColor=none;align=center;verticalAlign=middle;whiteSpace=wrap;rounded=0;" parent="1" vertex="1">
          <mxGeometry x="450" y="180" width="40" height="20" as="geometry" />
        </mxCell>
        <mxCell id="VQ8d4OnUmdFfFtYIpNaV-16" value="type" style="text;html=1;strokeColor=none;fillColor=none;align=center;verticalAlign=middle;whiteSpace=wrap;rounded=0;" parent="1" vertex="1">
          <mxGeometry x="570" y="180" width="40" height="20" as="geometry" />
        </mxCell>
        <mxCell id="caEEjVJI64U5iGkLyhRB-1" value="Recyclable header" style="text;html=1;strokeColor=none;fillColor=none;align=center;verticalAlign=middle;whiteSpace=wrap;rounded=0;" vertex="1" parent="1">
          <mxGeometry x="160" y="440" width="110" height="20" as="geometry" />
        </mxCell>
        <mxCell id="caEEjVJI64U5iGkLyhRB-2" value="" style="shape=curlyBracket;whiteSpace=wrap;html=1;rounded=1;rotation=-90;" vertex="1" parent="1">
          <mxGeometry x="267.5" y="112.5" width="20" height="255" as="geometry" />
        </mxCell>
        <mxCell id="caEEjVJI64U5iGkLyhRB-3" value="" style="shape=curlyBracket;whiteSpace=wrap;html=1;rounded=1;rotation=-90;" vertex="1" parent="1">
          <mxGeometry x="585" y="180" width="20" height="125" as="geometry" />
        </mxCell>
        <mxCell id="caEEjVJI64U5iGkLyhRB-4" value="" style="shape=curlyBracket;whiteSpace=wrap;html=1;rounded=1;rotation=90;" vertex="1" parent="1">
          <mxGeometry x="460" y="85" width="20" height="125" as="geometry" />
        </mxCell>
        <mxCell id="caEEjVJI64U5iGkLyhRB-5" value="4B" style="text;html=1;strokeColor=none;fillColor=none;align=center;verticalAlign=middle;whiteSpace=wrap;rounded=0;" vertex="1" parent="1">
          <mxGeometry x="257.5" y="250" width="40" height="20" as="geometry" />
        </mxCell>
        <mxCell id="caEEjVJI64U5iGkLyhRB-6" value="2B" style="text;html=1;strokeColor=none;fillColor=none;align=center;verticalAlign=middle;whiteSpace=wrap;rounded=0;" vertex="1" parent="1">
          <mxGeometry x="450" y="113" width="40" height="20" as="geometry" />
        </mxCell>
        <mxCell id="caEEjVJI64U5iGkLyhRB-7" value="1B" style="text;html=1;strokeColor=none;fillColor=none;align=center;verticalAlign=middle;whiteSpace=wrap;rounded=0;" vertex="1" parent="1">
          <mxGeometry x="575" y="260" width="40" height="20" as="geometry" />
        </mxCell>
        <mxCell id="caEEjVJI64U5iGkLyhRB-9" value="" style="shape=curlyBracket;whiteSpace=wrap;html=1;rounded=1;rotation=-90;" vertex="1" parent="1">
          <mxGeometry x="590" y="475" width="20" height="130" as="geometry" />
        </mxCell>
        <mxCell id="caEEjVJI64U5iGkLyhRB-10" value="4B" style="text;html=1;strokeColor=none;fillColor=none;align=center;verticalAlign=middle;whiteSpace=wrap;rounded=0;" vertex="1" parent="1">
          <mxGeometry x="580" y="550" width="40" height="20" as="geometry" />
        </mxCell>
      </root>
    </mxGraphModel>
  </diagram>
</mxfile>
